<?xml version="1.0" encoding="utf-8"?>
<svg x="0pt" y="0pt" width="800pt" height="800pt" viewBox="0 0 800 800" xmlns="http://www.w3.org/2000/svg" xmlns:xlink="http://www.w3.org/1999/xlink">
  <g id="Layer 1">
    <g id="Group">
      <path id="Path 33" style="fill:#ffffff;fill-opacity:1;fill-rule:nonzero;opacity:1;stroke:none;" d="M788.027,496.823 C734.596,711.133,517.536,841.56,303.201,788.116 C88.9527,734.686,-41.4737,517.613,11.982,303.315 C65.3877,88.9794,282.448,-41.4595,496.721,11.9712 C711.044,65.4019,841.458,282.5,788.027,496.823 z M461.695,438.414 C498.705,440.671,518.44,439.128,544.778,429.139 C562,448,572,472,560.665,513.95 C541.957,583.187,480.694,587.358,405.849,573.193 C405.849,573.193,387.685,645.989,387.685,645.989 C387.685,645.989,343.792,635.05,343.792,635.05 C343.792,635.05,361.719,563.23,361.719,563.23 C350.343,560.405,338.717,557.404,326.741,554.154 C326.741,554.154,308.751,626.312,308.751,626.312 C308.751,626.312,264.909,615.373,264.909,615.373 C264.909,615.373,283.073,542.44,283.073,542.44 C272.822,539.815,262.409,537.027,251.783,534.364 C251.783,534.364,194.664,520.125,194.664,520.125 C194.664,520.125,216.454,469.883,216.454,469.883 C216.454,469.883,248.795,478.483,248.357,477.846 C260.784,480.921,266.297,472.82,268.472,467.42 C268.472,467.42,297.175,352.345,297.175,352.345 C298.788,352.733,300.35,353.133,301.813,353.495 C300.063,352.795,298.475,352.345,297.25,352.032 C297.25,352.032,317.727,269.886,317.727,269.886 C318.265,260.56,315.052,248.796,297.275,244.358 C297.962,243.896,265.397,236.433,265.397,236.433 C265.397,236.433,277.073,189.553,277.073,189.553 C277.073,189.553,337.604,204.667,337.604,204.667 C337.604,204.667,337.554,204.892,337.554,204.892 C346.655,207.155,356.031,209.305,365.582,211.48 C365.582,211.48,383.572,139.397,383.572,139.397 C383.572,139.397,427.439,150.336,427.439,150.336 C427.439,150.336,409.812,221.006,409.812,221.006 C421.588,223.694,433.439,226.407,444.978,229.282 C444.978,229.282,462.48,159.074,462.48,159.074 C462.48,159.074,506.372,170.013,506.372,170.013 C506.372,170.013,488.395,242.121,488.395,242.121 C543.814,261.21,584.343,289.826,576.38,343.056 C570.617,382.023,548.921,400.693,521,410 C503,416,491,418,463,417 C436.997,416.071,374.835,407.141,365.107,404.713 C365.107,404.713,341.005,501.336,341.005,501.336 C370.758,508.724,462.53,538.19,476.094,483.684 C483.033,455.86,479,449,461.695,438.414 z"/>
      <path id="Path 32" style="fill:#f7931a;fill-opacity:1;fill-rule:evenodd;opacity:1;stroke:none;" d="M788.027,496.823 C734.596,711.133,517.536,841.56,303.201,788.116 C88.9527,734.686,-41.4737,517.613,11.982,303.315 C65.3877,88.9794,282.448,-41.4595,496.721,11.9712 C711.044,65.4019,841.458,282.5,788.027,496.823 z M461.695,438.414 C498.705,440.671,518.44,439.128,544.778,429.139 C562,448,572,472,560.665,513.95 C541.957,583.187,480.694,587.358,405.849,573.193 C405.849,573.193,387.685,645.989,387.685,645.989 C387.685,645.989,343.792,635.05,343.792,635.05 C343.792,635.05,361.719,563.23,361.719,563.23 C350.343,560.405,338.717,557.404,326.741,554.154 C326.741,554.154,308.751,626.312,308.751,626.312 C308.751,626.312,264.909,615.373,264.909,615.373 C264.909,615.373,283.073,542.44,283.073,542.44 C272.822,539.815,262.409,537.027,251.783,534.364 C251.783,534.364,194.664,520.125,194.664,520.125 C194.664,520.125,216.454,469.883,216.454,469.883 C216.454,469.883,248.795,478.483,248.357,477.846 C260.784,480.921,266.297,472.82,268.472,467.42 C268.472,467.42,297.175,352.345,297.175,352.345 C298.788,352.733,300.35,353.133,301.813,353.495 C300.063,352.795,298.475,352.345,297.25,352.032 C297.25,352.032,317.727,269.886,317.727,269.886 C318.265,260.56,315.052,248.796,297.275,244.358 C297.962,243.896,265.397,236.433,265.397,236.433 C265.397,236.433,277.073,189.553,277.073,189.553 C277.073,189.553,337.604,204.667,337.604,204.667 C337.604,204.667,337.554,204.892,337.554,204.892 C346.655,207.155,356.031,209.305,365.582,211.48 C365.582,211.48,383.572,139.397,383.572,139.397 C383.572,139.397,427.439,150.336,427.439,150.336 C427.439,150.336,409.812,221.006,409.812,221.006 C421.588,223.694,433.439,226.407,444.978,229.282 C444.978,229.282,462.48,159.074,462.48,159.074 C462.48,159.074,506.372,170.013,506.372,170.013 C506.372,170.013,488.395,242.121,488.395,242.121 C543.814,261.21,584.343,289.826,576.38,343.056 C570.617,382.023,548.921,400.693,521,410 C503,416,491,418,463,417 C436.997,416.071,374.835,407.141,365.107,404.713 C365.107,404.713,341.005,501.336,341.005,501.336 C370.758,508.724,462.53,538.19,476.094,483.684 C483.033,455.86,479,449,461.695,438.414 z"/>
      <path id="Path 31" style="fill:#f7931a;fill-opacity:1;fill-rule:nonzero;opacity:1;stroke:none;" d="M489.67,342.269 C477.294,391.849,400.911,366.659,376.133,360.483 C376.133,360.483,397.986,272.849,397.986,272.849 C422.763,279.025,502.559,290.551,489.67,342.269 z"/>
    </g>
  </g>
</svg>
